<?xml version="1.0" encoding="UTF-8"?>
<svg width="16px" height="16px" viewBox="0 0 16 16" version="1.1" xmlns="http://www.w3.org/2000/svg" xmlns:xlink="http://www.w3.org/1999/xlink">
    <!-- Generator: Sketch 49.3 (51167) - http://www.bohemiancoding.com/sketch -->
    <title>toolbar</title>
    <desc>Created with Sketch.</desc>
    <defs></defs>
    <g id="toolbar" stroke="none" stroke-width="1" fill="none" fill-rule="evenodd">
        <path d="M8,16 C3.581722,16 0,12.418278 0,8 C0,3.581722 3.581722,0 8,0 C12.418278,0 16,3.581722 16,8 C16,12.418278 12.418278,16 8,16 Z M6.93943226,7.45608403 L8.75305776,11.459654 C9.08208719,12.185985 10.1452462,12.0798613 10.3242105,11.3028228 L11.7594417,5.07124384 C11.8627373,4.62274817 11.5828974,4.17543291 11.1344017,4.07213726 C10.6859061,3.96884162 10.2385908,4.24868153 10.1352952,4.69717721 L9.25357512,8.52548586 L7.44829849,4.54034596 C7.12013882,3.815935 6.06046763,3.91902862 5.8780936,4.69310854 L4.40992719,10.9246875 C4.30438448,11.3726597 4.58197844,11.8213722 5.02995064,11.9269149 C5.47792285,12.0324576 5.92663536,11.7548637 6.03217807,11.3068915 L6.93943226,7.45608403 Z" id="Combined-Shape" fill="#4D4D4D"></path>
    </g>
</svg>